<svg width="40" height="41" viewBox="0 0 40 41" fill="none" xmlns="http://www.w3.org/2000/svg">
<mask id="mask0_67_1500" style="mask-type:alpha" maskUnits="userSpaceOnUse" x="0" y="0" width="40" height="41">
<rect y="0.5" width="40" height="40" fill="#D9D9D9"/>
</mask>
<g mask="url(#mask0_67_1500)">
<path d="M8.4974 27.25C7.88628 26.1944 7.42795 25.1111 7.1224 24C6.81684 22.8888 6.66406 21.75 6.66406 20.5833C6.66406 16.8611 7.95573 13.6944 10.5391 11.0833C13.1224 8.47218 16.2752 7.16663 19.9974 7.16663H20.2891L17.6224 4.49996L19.9557 2.16663L26.6224 8.83329L19.9557 15.5L17.6224 13.1666L20.2891 10.5H19.9974C17.2196 10.5 14.8585 11.4791 12.9141 13.4375C10.9696 15.3958 9.9974 17.7777 9.9974 20.5833C9.9974 21.3055 10.0807 22.0138 10.2474 22.7083C10.4141 23.4027 10.6641 24.0833 10.9974 24.75L8.4974 27.25ZM20.0391 38.8333L13.3724 32.1666L20.0391 25.5L22.3724 27.8333L19.7057 30.5H19.9974C22.7752 30.5 25.1363 29.5208 27.0807 27.5625C29.0252 25.6041 29.9974 23.2222 29.9974 20.4166C29.9974 19.6944 29.9141 18.9861 29.7474 18.2916C29.5807 17.5972 29.3307 16.9166 28.9974 16.25L31.4974 13.75C32.1085 14.8055 32.5668 15.8888 32.8724 17C33.178 18.1111 33.3307 19.25 33.3307 20.4166C33.3307 24.1388 32.0391 27.3055 29.4557 29.9166C26.8724 32.5277 23.7196 33.8333 19.9974 33.8333H19.7057L22.3724 36.5L20.0391 38.8333Z" fill="#A7A0F8"/>
</g>
</svg>
