<svg width="40" height="41" viewBox="0 0 40 41" fill="none" xmlns="http://www.w3.org/2000/svg">
<mask id="mask0_67_1492" style="mask-type:alpha" maskUnits="userSpaceOnUse" x="0" y="0" width="40" height="41">
<rect y="0.5" width="40" height="40" fill="#D9D9D9"/>
</mask>
<g mask="url(#mask0_67_1492)">
<path d="M10.0026 35.5C8.16927 35.5 6.59983 34.8472 5.29427 33.5417C3.98872 32.2361 3.33594 30.6667 3.33594 28.8333C3.33594 27 3.98872 25.4306 5.29427 24.125C6.59983 22.8194 8.16927 22.1667 10.0026 22.1667C10.6137 22.1667 11.197 22.2431 11.7526 22.3958C12.3082 22.5486 12.822 22.7639 13.2943 23.0417L17.6693 18.625L13.1276 14C12.6276 13.5 12.2595 12.9514 12.0234 12.3542C11.7873 11.7569 11.6693 11.1528 11.6693 10.5417C11.6693 9.23611 12.1276 8.06944 13.0443 7.04167C13.9609 6.01389 15.1693 5.5 16.6693 5.5H23.3359C24.8359 5.5 26.0443 6.01389 26.9609 7.04167C27.8776 8.06944 28.3359 9.23611 28.3359 10.5417C28.3359 11.1528 28.2179 11.7639 27.9818 12.375C27.7457 12.9861 27.3776 13.5417 26.8776 14.0417L22.3359 18.625L26.6693 23.0417C27.1415 22.7361 27.6623 22.5139 28.2318 22.375C28.8012 22.2361 29.3915 22.1667 30.0026 22.1667C31.8359 22.1667 33.4054 22.8194 34.7109 24.125C36.0165 25.4306 36.6693 27 36.6693 28.8333C36.6693 30.6667 36.0165 32.2361 34.7109 33.5417C33.4054 34.8472 31.8359 35.5 30.0026 35.5C28.1693 35.5 26.5998 34.8472 25.2943 33.5417C23.9887 32.2361 23.3359 30.6667 23.3359 28.8333C23.3359 28.2222 23.4193 27.625 23.5859 27.0417C23.7526 26.4583 23.9887 25.9028 24.2943 25.375L20.0026 21L15.7109 25.375C16.0165 25.9028 16.2526 26.4583 16.4193 27.0417C16.5859 27.625 16.6693 28.2222 16.6693 28.8333C16.6693 30.6667 16.0165 32.2361 14.7109 33.5417C13.4054 34.8472 11.8359 35.5 10.0026 35.5ZM10.0026 32.1667C10.9193 32.1667 11.704 31.8403 12.3568 31.1875C13.0095 30.5347 13.3359 29.75 13.3359 28.8333C13.3359 27.9167 13.0095 27.1319 12.3568 26.4792C11.704 25.8264 10.9193 25.5 10.0026 25.5C9.08594 25.5 8.30122 25.8264 7.64844 26.4792C6.99566 27.1319 6.66927 27.9167 6.66927 28.8333C6.66927 29.75 6.99566 30.5347 7.64844 31.1875C8.30122 31.8403 9.08594 32.1667 10.0026 32.1667ZM30.0026 32.1667C30.9193 32.1667 31.704 31.8403 32.3568 31.1875C33.0095 30.5347 33.3359 29.75 33.3359 28.8333C33.3359 27.9167 33.0095 27.1319 32.3568 26.4792C31.704 25.8264 30.9193 25.5 30.0026 25.5C29.0859 25.5 28.3012 25.8264 27.6484 26.4792C26.9957 27.1319 26.6693 27.9167 26.6693 28.8333C26.6693 29.75 26.9957 30.5347 27.6484 31.1875C28.3012 31.8403 29.0859 32.1667 30.0026 32.1667ZM16.6693 8.83333C16.1693 8.83333 15.7665 9 15.4609 9.33333C15.1554 9.66667 15.0026 10.0556 15.0026 10.5C15.0026 10.7222 15.0443 10.9306 15.1276 11.125C15.2109 11.3194 15.3359 11.5 15.5026 11.6667L20.0026 16.25L24.5026 11.7083C24.6693 11.5417 24.7943 11.3542 24.8776 11.1458C24.9609 10.9375 25.0026 10.7222 25.0026 10.5C25.0026 10.0556 24.8498 9.66667 24.5443 9.33333C24.2387 9 23.8359 8.83333 23.3359 8.83333H16.6693Z" fill="#A7A0F8"/>
</g>
</svg>
