<svg width="40" height="41" viewBox="0 0 40 41" fill="none" xmlns="http://www.w3.org/2000/svg">
<mask id="mask0_67_1504" style="mask-type:alpha" maskUnits="userSpaceOnUse" x="0" y="0" width="40" height="41">
<rect y="0.5" width="40" height="40" fill="#D9D9D9"/>
</mask>
<g mask="url(#mask0_67_1504)">
<path d="M33.3359 33.8333H25.0026C25.0026 33.2777 24.9818 32.7222 24.9401 32.1666C24.8984 31.6111 24.8359 31.0555 24.7526 30.5H33.3359V10.5H6.66927V12.4166C6.11372 12.3333 5.55816 12.2708 5.0026 12.2291C4.44705 12.1875 3.89149 12.1666 3.33594 12.1666V10.5C3.33594 9.58329 3.66233 8.79857 4.3151 8.14579C4.96788 7.49301 5.7526 7.16663 6.66927 7.16663H33.3359C34.2526 7.16663 35.0373 7.49301 35.6901 8.14579C36.3429 8.79857 36.6693 9.58329 36.6693 10.5V30.5C36.6693 31.4166 36.3429 32.2013 35.6901 32.8541C35.0373 33.5069 34.2526 33.8333 33.3359 33.8333ZM3.33594 33.8333V28.8333C4.72483 28.8333 5.90538 29.3194 6.8776 30.2916C7.84983 31.2638 8.33594 32.4444 8.33594 33.8333H3.33594ZM11.6693 33.8333C11.6693 31.5277 10.8568 29.5625 9.23177 27.9375C7.60677 26.3125 5.64149 25.5 3.33594 25.5V22.1666C6.58594 22.1666 9.34288 23.2986 11.6068 25.5625C13.8707 27.8263 15.0026 30.5833 15.0026 33.8333H11.6693ZM18.3359 33.8333C18.3359 31.75 17.9401 29.7986 17.1484 27.9791C16.3568 26.1597 15.2873 24.5763 13.9401 23.2291C12.5929 21.8819 11.0095 20.8125 9.1901 20.0208C7.37066 19.2291 5.41927 18.8333 3.33594 18.8333V15.5C5.86372 15.5 8.23872 15.9791 10.4609 16.9375C12.6832 17.8958 14.6276 19.2083 16.2943 20.875C17.9609 22.5416 19.2734 24.4861 20.2318 26.7083C21.1901 28.9305 21.6693 31.3055 21.6693 33.8333H18.3359Z" fill="#A7A0F8"/>
</g>
</svg>
