<svg width="40" height="41" viewBox="0 0 40 41" fill="none" xmlns="http://www.w3.org/2000/svg">
<mask id="mask0_67_1496" style="mask-type:alpha" maskUnits="userSpaceOnUse" x="0" y="0" width="40" height="41">
<rect y="0.5" width="40" height="40" fill="#D9D9D9"/>
</mask>
<g mask="url(#mask0_67_1496)">
<path d="M1.66406 33.8333V29.1666C1.66406 28.2222 1.90712 27.3541 2.39323 26.5625C2.87934 25.7708 3.52517 25.1666 4.33073 24.75C6.05295 23.8888 7.80295 23.243 9.58073 22.8125C11.3585 22.3819 13.1641 22.1666 14.9974 22.1666C16.8307 22.1666 18.6363 22.3819 20.4141 22.8125C22.1918 23.243 23.9418 23.8888 25.6641 24.75C26.4696 25.1666 27.1155 25.7708 27.6016 26.5625C28.0877 27.3541 28.3307 28.2222 28.3307 29.1666V33.8333H1.66406ZM31.6641 33.8333V28.8333C31.6641 27.6111 31.3238 26.4375 30.6432 25.3125C29.9627 24.1875 28.9974 23.2222 27.7474 22.4166C29.1641 22.5833 30.4974 22.868 31.7474 23.2708C32.9974 23.6736 34.1641 24.1666 35.2474 24.75C36.2474 25.3055 37.0113 25.9236 37.5391 26.6041C38.0668 27.2847 38.3307 28.0277 38.3307 28.8333V33.8333H31.6641ZM14.9974 20.5C13.1641 20.5 11.5946 19.8472 10.2891 18.5416C8.98351 17.2361 8.33073 15.6666 8.33073 13.8333C8.33073 12 8.98351 10.4305 10.2891 9.12496C11.5946 7.8194 13.1641 7.16663 14.9974 7.16663C16.8307 7.16663 18.4002 7.8194 19.7057 9.12496C21.0113 10.4305 21.6641 12 21.6641 13.8333C21.6641 15.6666 21.0113 17.2361 19.7057 18.5416C18.4002 19.8472 16.8307 20.5 14.9974 20.5ZM31.6641 13.8333C31.6641 15.6666 31.0113 17.2361 29.7057 18.5416C28.4002 19.8472 26.8307 20.5 24.9974 20.5C24.6918 20.5 24.303 20.4652 23.8307 20.3958C23.3585 20.3263 22.9696 20.25 22.6641 20.1666C23.4141 19.2777 23.9905 18.2916 24.3932 17.2083C24.796 16.125 24.9974 15 24.9974 13.8333C24.9974 12.6666 24.796 11.5416 24.3932 10.4583C23.9905 9.37496 23.4141 8.38885 22.6641 7.49996C23.053 7.36107 23.4418 7.27079 23.8307 7.22913C24.2196 7.18746 24.6085 7.16663 24.9974 7.16663C26.8307 7.16663 28.4002 7.8194 29.7057 9.12496C31.0113 10.4305 31.6641 12 31.6641 13.8333ZM4.9974 30.5H24.9974V29.1666C24.9974 28.8611 24.921 28.5833 24.7682 28.3333C24.6155 28.0833 24.4141 27.8888 24.1641 27.75C22.6641 27 21.1502 26.4375 19.6224 26.0625C18.0946 25.6875 16.553 25.5 14.9974 25.5C13.4418 25.5 11.9002 25.6875 10.3724 26.0625C8.84462 26.4375 7.33073 27 5.83073 27.75C5.58073 27.8888 5.37934 28.0833 5.22656 28.3333C5.07378 28.5833 4.9974 28.8611 4.9974 29.1666V30.5ZM14.9974 17.1666C15.9141 17.1666 16.6988 16.8402 17.3516 16.1875C18.0043 15.5347 18.3307 14.75 18.3307 13.8333C18.3307 12.9166 18.0043 12.1319 17.3516 11.4791C16.6988 10.8263 15.9141 10.5 14.9974 10.5C14.0807 10.5 13.296 10.8263 12.6432 11.4791C11.9905 12.1319 11.6641 12.9166 11.6641 13.8333C11.6641 14.75 11.9905 15.5347 12.6432 16.1875C13.296 16.8402 14.0807 17.1666 14.9974 17.1666Z" fill="#A7A0F8"/>
</g>
</svg>
