<svg width="135" height="40" viewBox="0 0 135 40" fill="none" xmlns="http://www.w3.org/2000/svg">
<path d="M14 6.07154L14.0001 5.01285C14.1771 4.88457 14.3712 4.77499 14.6219 4.67399C15.1816 4.44848 16.17 4.21429 18.0001 4.21429C19.8301 4.21429 20.8185 4.4485 21.3782 4.67401C21.6289 4.77499 21.823 4.88457 22 5.01283V6.07143H26V3.46775L25.4436 2.92891C24.9586 2.45929 24.2351 1.77619 22.9704 1.26664C21.7473 0.773842 20.17 0.5 18.0001 0.5C15.8302 0.5 14.2529 0.773821 13.0298 1.26661C11.7651 1.77614 11.0416 2.45924 10.5565 2.92895L10.0002 3.46773L10 6.07132L14 6.07154Z" fill="#A7A0F8"/>
<path fill-rule="evenodd" clip-rule="evenodd" d="M11.5174 9.78571H24.4826C26.0925 9.78569 27.4213 9.78567 28.5037 9.86779C29.6278 9.95308 30.6613 10.1361 31.6319 10.5954C33.1372 11.3076 34.3611 12.444 35.1281 13.8418C35.6226 14.7431 35.8198 15.7027 35.9116 16.7466C36 17.7517 36 18.9855 36 20.4804V28.8053C36 30.3002 36 31.534 35.9116 32.5391C35.8198 33.583 35.6226 34.5426 35.1281 35.4439C34.3611 36.8417 33.1372 37.9781 31.6319 38.6903C30.6613 39.1496 29.6278 39.3326 28.5037 39.4179C27.4213 39.5 26.0927 39.5 24.4829 39.5H11.5175C9.90765 39.5 8.57867 39.5 7.49635 39.4179C6.37216 39.3326 5.33875 39.1496 4.36808 38.6903C2.86278 37.9781 1.63894 36.8417 0.871951 35.4439C0.377369 34.5426 0.180241 33.583 0.0883906 32.5391C-4.28483e-05 31.534 -2.31188e-05 30.3002 7.82431e-07 28.8053V20.4804C-2.31188e-05 18.9855 -4.28483e-05 17.7517 0.0883906 16.7466C0.180241 15.7027 0.377369 14.7431 0.871951 13.8418C1.63894 12.444 2.86278 11.3076 4.36808 10.5954C5.33875 10.1361 6.37216 9.95308 7.49635 9.86779C8.57874 9.78567 9.90748 9.78569 11.5174 9.78571ZM18.0011 32.0714C15.6195 32.0726 13.1868 31.5051 10.8001 29.8429L13.2001 26.8714C14.8133 27.9949 16.3772 28.358 17.999 28.3571C19.6207 28.3563 21.1881 27.994 22.8 26.8714L25.2 29.8429C22.812 31.506 20.3759 32.0702 18.0011 32.0714ZM11 19.0714C9.34315 19.0714 8 20.3186 8 21.8571C8 23.3956 9.34315 24.6429 11 24.6429C12.6569 24.6429 14 23.3956 14 21.8571C14 20.3186 12.6569 19.0714 11 19.0714ZM22 21.8571C22 20.3186 23.3431 19.0714 25 19.0714C26.6569 19.0714 28 20.3186 28 21.8571C28 23.3956 26.6569 24.6429 25 24.6429C23.3431 24.6429 22 23.3956 22 21.8571Z" fill="#A7A0F8"/>
<path d="M53.5448 28H46.3688V11.32H52.8968C56.5688 11.32 58.5368 12.832 58.5368 15.64C58.5368 17.44 57.4088 18.832 55.7768 19.216C58.1528 19.768 59.3528 21.136 59.3528 23.272C59.3528 26.344 57.2888 28 53.5448 28ZM49.0328 13.456V18.352H52.7528C54.7928 18.352 55.8248 17.512 55.8248 15.832C55.8248 14.248 54.7928 13.456 52.7528 13.456H49.0328ZM49.0328 20.512V25.864H53.1608C55.3688 25.864 56.5928 24.928 56.5928 23.2C56.5928 21.472 55.3688 20.512 53.0888 20.512H49.0328ZM71.5413 26.56C70.3893 27.712 68.9493 28.288 67.1972 28.288C65.4453 28.288 64.0053 27.712 62.8533 26.56C61.6772 25.408 61.1012 23.944 61.1012 22.168C61.1012 20.392 61.6772 18.928 62.8533 17.776C64.0053 16.648 65.4453 16.072 67.1972 16.072C68.9493 16.072 70.3893 16.648 71.5413 17.776C72.6933 18.928 73.2693 20.392 73.2693 22.168C73.2693 23.944 72.6933 25.408 71.5413 26.56ZM64.7492 25.096C65.3493 25.816 66.1653 26.176 67.1972 26.176C68.2293 26.176 69.0453 25.816 69.6693 25.096C70.2693 24.376 70.5813 23.392 70.5813 22.168C70.5813 19.744 69.2133 18.184 67.1972 18.184C65.1573 18.184 63.8133 19.696 63.8133 22.168C63.8133 23.392 64.1253 24.376 64.7492 25.096ZM79.4185 28.288C77.0425 28.288 75.8425 27.016 75.8425 24.448V18.544H74.0425V16.36H75.9145L76.5145 12.928H78.4585V16.36H83.0905V18.544H78.4585V24.376C78.4585 25.456 78.8425 25.984 79.6345 25.984C80.3785 25.984 81.0265 25.312 81.6265 23.968L83.6425 25C82.6585 27.184 81.2425 28.288 79.4185 28.288ZM92.5966 28H85.4206V11.32H91.9486C95.6206 11.32 97.5886 12.832 97.5886 15.64C97.5886 17.44 96.4606 18.832 94.8286 19.216C97.2046 19.768 98.4046 21.136 98.4046 23.272C98.4046 26.344 96.3406 28 92.5966 28ZM88.0846 13.456V18.352H91.8046C93.8446 18.352 94.8766 17.512 94.8766 15.832C94.8766 14.248 93.8446 13.456 91.8046 13.456H88.0846ZM88.0846 20.512V25.864H92.2126C94.4206 25.864 95.6446 24.928 95.6446 23.2C95.6446 21.472 94.4206 20.512 92.1406 20.512H88.0846ZM105.241 28.288C102.457 28.288 100.873 26.536 100.873 23.584V16.36H103.489V23.32C103.489 25.168 104.305 26.104 105.913 26.104C107.569 26.104 108.745 25.048 108.745 23.248V16.36H111.361V28H108.841V26.44C108.001 27.664 106.801 28.288 105.241 28.288ZM123.274 28H113.242V26.08L119.722 18.544H113.506V16.36H123.034V18.28L116.53 25.816H123.274V28ZM134.073 28H124.041V26.08L130.521 18.544H124.305V16.36H133.833V18.28L127.329 25.816H134.073V28Z" fill="#F5F5F5"/>
</svg>
