<svg width="40" height="41" viewBox="0 0 40 41" fill="none" xmlns="http://www.w3.org/2000/svg">
<mask id="mask0_67_1484" style="mask-type:alpha" maskUnits="userSpaceOnUse" x="0" y="0" width="40" height="41">
<rect y="0.5" width="40" height="40" fill="#D9D9D9"/>
</mask>
<g mask="url(#mask0_67_1484)">
<path d="M14.9583 33.8308C14.4306 33.8308 13.9583 33.6781 13.5417 33.3725C13.125 33.067 12.8194 32.6781 12.625 32.2058L8.79167 22.1642H1.625V18.8308H11.125L14.9583 28.9975L22.625 8.78918C22.8194 8.31696 23.125 7.92807 23.5417 7.62252C23.9583 7.31696 24.4306 7.16418 24.9583 7.16418C25.4861 7.16418 25.9583 7.31696 26.375 7.62252C26.7917 7.92807 27.0972 8.31696 27.2917 8.78918L31.125 18.8308H38.2917V22.1642H28.7917L24.9583 11.9975L17.2917 32.2058C17.0972 32.6781 16.7917 33.067 16.375 33.3725C15.9583 33.6781 15.4861 33.8308 14.9583 33.8308Z" fill="#A7A0F8"/>
</g>
</svg>
