<svg width="40" height="41" viewBox="0 0 40 41" fill="none" xmlns="http://www.w3.org/2000/svg">
<mask id="mask0_67_1488" style="mask-type:alpha" maskUnits="userSpaceOnUse" x="0" y="0" width="40" height="41">
<rect y="0.5" width="40" height="40" fill="#D9D9D9"/>
</mask>
<g mask="url(#mask0_67_1488)">
<path d="M6.66927 33.8333C5.7526 33.8333 4.96788 33.5069 4.3151 32.8541C3.66233 32.2014 3.33594 31.4166 3.33594 30.5V10.5C3.33594 9.58329 3.66233 8.79857 4.3151 8.14579C4.96788 7.49301 5.7526 7.16663 6.66927 7.16663H33.3359C34.2526 7.16663 35.0373 7.49301 35.6901 8.14579C36.3429 8.79857 36.6693 9.58329 36.6693 10.5V30.5C36.6693 31.4166 36.3429 32.2014 35.6901 32.8541C35.0373 33.5069 34.2526 33.8333 33.3359 33.8333H6.66927ZM6.66927 30.5H24.1693V24.6666H6.66927V30.5ZM27.5026 30.5H33.3359V15.5H27.5026V30.5ZM6.66927 21.3333H24.1693V15.5H6.66927V21.3333Z" fill="#A7A0F8"/>
</g>
</svg>
